<?xml version="1.0" encoding="utf-8"?>
<!-- Generator: Adobe Illustrator 22.0.1, SVG Export Plug-In . SVG Version: 6.00 Build 0)  -->
<svg version="1.1" xmlns="http://www.w3.org/2000/svg" xmlns:xlink="http://www.w3.org/1999/xlink" x="0px" y="0px"
	 viewBox="0 0 528 539" style="enable-background:new 0 0 528 539;" xml:space="preserve">
<style type="text/css">
	.st0{display:none;}
	.st1{display:inline;}
	.st2{fill:#DB0073;}
	.st3{fill:none;stroke:#000000;stroke-width:2.6657;stroke-miterlimit:10;}
</style>
<g id="Calque_1" class="st0">
</g>
<g id="Calque_2">
</g>
<g id="Calque_6">
</g>
<g id="Calque_3">
</g>
<g id="motif_1_">
</g>
<g id="cadre">
</g>
<g id="motif" class="st0">
</g>
<g id="Calque_7">
	<g>
		<path d="M97.1,438.8v-56.4h6.6v56.4H97.1z"/>
		<path d="M163.2,438.8h-7.5l-30.8-47.3h-0.3c0.4,5.6,0.6,10.6,0.6,15.3v32.1h-6.1v-56.4h7.4l30.7,47.1h0.3
			c-0.1-0.7-0.2-2.9-0.3-6.7c-0.2-3.8-0.2-6.5-0.2-8.1v-32.4h6.1V438.8z"/>
		<path d="M210.5,423.8c0,5-1.8,8.8-5.4,11.6c-3.6,2.8-8.5,4.2-14.7,4.2c-6.7,0-11.8-0.9-15.4-2.6v-6.3c2.3,1,4.8,1.7,7.6,2.3
			c2.7,0.6,5.4,0.8,8.1,0.8c4.4,0,7.7-0.8,9.9-2.5c2.2-1.7,3.3-4,3.3-6.9c0-2-0.4-3.6-1.2-4.8s-2.1-2.4-3.9-3.5s-4.6-2.3-8.4-3.6
			c-5.2-1.9-9-4.1-11.2-6.7c-2.3-2.6-3.4-5.9-3.4-10.1c0-4.3,1.6-7.8,4.9-10.4c3.3-2.6,7.6-3.9,13-3.9c5.6,0,10.8,1,15.5,3.1l-2,5.7
			c-4.7-2-9.2-2.9-13.6-2.9c-3.5,0-6.2,0.7-8.1,2.2c-2,1.5-2.9,3.6-2.9,6.2c0,2,0.4,3.6,1.1,4.8c0.7,1.2,1.9,2.4,3.6,3.4
			c1.7,1,4.3,2.2,7.8,3.5c5.9,2.1,10,4.4,12.2,6.8C209.4,416.8,210.5,419.9,210.5,423.8z"/>
		<path d="M239.4,438.8h-6.6v-50.6H215v-5.8h42.3v5.8h-17.9V438.8z"/>
		<path d="M265.7,438.8v-56.4h6.6v56.4H265.7z"/>
		<path d="M305.1,438.8h-6.6v-50.6h-17.9v-5.8H323v5.8h-17.9V438.8z"/>
		<path d="M374.1,382.4v36.5c0,6.4-1.9,11.5-5.8,15.2c-3.9,3.7-9.2,5.5-16,5.5s-12-1.9-15.8-5.6c-3.7-3.7-5.6-8.8-5.6-15.3v-36.3
			h6.6v36.8c0,4.7,1.3,8.3,3.9,10.8c2.6,2.5,6.4,3.8,11.3,3.8c4.8,0,8.4-1.3,11-3.8s3.9-6.2,3.9-10.9v-36.7H374.1z"/>
		<path d="M406.3,438.8h-6.6v-50.6h-17.9v-5.8h42.3v5.8h-17.9V438.8z"/>
		<path d="M114.2,477.1c0,3.5-1,6.2-2.9,8.1c-1.9,1.9-4.7,2.8-8.3,2.8h-5.9v-21.4h6.6c3.3,0,5.9,0.9,7.8,2.8
			S114.2,473.8,114.2,477.1z M111.5,477.2c0-2.8-0.7-4.9-2.1-6.3c-1.4-1.4-3.5-2.1-6.2-2.1h-3.6v17.1h3c3,0,5.2-0.7,6.7-2.2
			C110.8,482.2,111.5,480,111.5,477.2z"/>
		<path d="M130.9,488h-11.9v-21.4h11.9v2.2h-9.4v6.9h8.9v2.2h-8.9v7.9h9.4V488z"/>
		<path d="M147.7,482.3c0,1.9-0.7,3.4-2.1,4.4s-3.2,1.6-5.6,1.6c-2.5,0-4.5-0.3-5.9-1v-2.4c0.9,0.4,1.8,0.7,2.9,0.9s2.1,0.3,3.1,0.3
			c1.7,0,2.9-0.3,3.8-0.9c0.8-0.6,1.3-1.5,1.3-2.6c0-0.7-0.1-1.3-0.4-1.8s-0.8-0.9-1.5-1.3s-1.8-0.9-3.2-1.4c-2-0.7-3.4-1.6-4.3-2.5
			c-0.9-1-1.3-2.3-1.3-3.8c0-1.7,0.6-3,1.9-3.9s2.9-1.5,4.9-1.5c2.1,0,4.1,0.4,5.9,1.2l-0.8,2.2c-1.8-0.7-3.5-1.1-5.2-1.1
			c-1.3,0-2.3,0.3-3.1,0.8s-1.1,1.4-1.1,2.4c0,0.7,0.1,1.4,0.4,1.8s0.7,0.9,1.4,1.3c0.6,0.4,1.6,0.8,3,1.3c2.2,0.8,3.8,1.7,4.6,2.6
			S147.7,480.8,147.7,482.3z"/>
		<path d="M178.5,477.3c0,3.4-0.9,6.1-2.6,8.1c-1.7,2-4.1,2.9-7.2,2.9c-3.2,0-5.6-1-7.3-2.9c-1.7-1.9-2.6-4.7-2.6-8.2
			c0-3.5,0.9-6.2,2.6-8.1c1.7-1.9,4.2-2.9,7.3-2.9c3.1,0,5.5,1,7.2,2.9S178.5,473.8,178.5,477.3z M161.4,477.3
			c0,2.9,0.6,5.1,1.9,6.6c1.2,1.5,3,2.2,5.4,2.2c2.4,0,4.2-0.7,5.4-2.2s1.8-3.7,1.8-6.6c0-2.9-0.6-5.1-1.8-6.6
			c-1.2-1.5-3-2.2-5.4-2.2c-2.4,0-4.2,0.8-5.4,2.2S161.4,474.4,161.4,477.3z"/>
		<path d="M200,488h-2.8l-11.7-18h-0.1c0.2,2.1,0.2,4,0.2,5.8V488h-2.3v-21.4h2.8l11.7,17.9h0.1c0-0.3-0.1-1.1-0.1-2.5
			s-0.1-2.5-0.1-3.1v-12.3h2.3V488z"/>
		<path d="M215.3,476.8h7.3v10.4c-1.1,0.4-2.3,0.6-3.5,0.8s-2.5,0.3-4.1,0.3c-3.2,0-5.8-1-7.6-2.9s-2.7-4.6-2.7-8.1
			c0-2.2,0.4-4.2,1.3-5.9c0.9-1.7,2.2-3,3.9-3.8c1.7-0.9,3.6-1.3,5.9-1.3c2.3,0,4.4,0.4,6.4,1.3l-1,2.2c-1.9-0.8-3.8-1.2-5.6-1.2
			c-2.6,0-4.6,0.8-6.1,2.3s-2.2,3.7-2.2,6.5c0,2.9,0.7,5.1,2.1,6.6s3.5,2.2,6.2,2.2c1.5,0,2.9-0.2,4.4-0.5V479h-4.8V476.8z"/>
		<path d="M227.7,488v-21.4h2.5v19.2h9.4v2.3H227.7z"/>
		<path d="M255.2,488h-11.9v-21.4h11.9v2.2h-9.4v6.9h8.9v2.2h-8.9v7.9h9.4V488z"/>
		<path d="M272,482.3c0,1.9-0.7,3.4-2.1,4.4s-3.2,1.6-5.6,1.6c-2.5,0-4.5-0.3-5.9-1v-2.4c0.9,0.4,1.8,0.7,2.9,0.9s2.1,0.3,3.1,0.3
			c1.7,0,2.9-0.3,3.8-0.9c0.8-0.6,1.3-1.5,1.3-2.6c0-0.7-0.1-1.3-0.4-1.8s-0.8-0.9-1.5-1.3s-1.8-0.9-3.2-1.4c-2-0.7-3.4-1.6-4.3-2.5
			c-0.9-1-1.3-2.3-1.3-3.8c0-1.7,0.6-3,1.9-3.9s2.9-1.5,4.9-1.5c2.1,0,4.1,0.4,5.9,1.2l-0.8,2.2c-1.8-0.7-3.5-1.1-5.2-1.1
			c-1.3,0-2.3,0.3-3.1,0.8s-1.1,1.4-1.1,2.4c0,0.7,0.1,1.4,0.4,1.8s0.7,0.9,1.4,1.3c0.6,0.4,1.6,0.8,3,1.3c2.2,0.8,3.8,1.7,4.6,2.6
			S272,480.8,272,482.3z"/>
		<path class="st2" d="M305.5,476.8l-0.2,0.7c-0.5,0-1.1,0.1-1.7,0.4s-1.2,0.8-1.9,1.7c-0.4,0.5-0.7,1-1,1.3
			c-0.2,0.3-0.5,0.6-0.6,0.8c-0.2,0.2-0.3,0.4-0.4,0.5c-0.1,0.1-0.2,0.3-0.3,0.4c-0.1,0.1-0.2,0.3-0.4,0.5c-0.2,0.2-0.4,0.5-0.7,0.8
			c0.2,0.3,0.4,0.7,0.6,1c0.2,0.3,0.4,0.6,0.7,0.9c0.2,0.3,0.5,0.5,0.8,0.6c0.3,0.1,0.6,0.2,1,0.2c0.6,0,1.1-0.2,1.5-0.5
			c0.4-0.3,0.8-0.8,1-1.3h0.9c-0.6,1.3-1.3,2.2-2.2,2.8c-0.8,0.6-1.8,0.9-2.8,0.9c-0.5,0-1-0.1-1.4-0.2c-0.4-0.1-0.8-0.3-1.1-0.5
			s-0.6-0.5-0.9-0.7c-0.3-0.3-0.5-0.6-0.8-0.9c-0.5,0.5-1.1,0.9-1.6,1.2c-0.5,0.3-1,0.5-1.6,0.7c-0.5,0.2-1.1,0.3-1.7,0.4
			c-0.6,0.1-1.2,0.1-1.9,0.1c-1,0-1.8-0.1-2.5-0.5c-0.7-0.3-1.2-0.7-1.7-1.2c-0.4-0.5-0.7-1-0.9-1.6s-0.3-1.1-0.3-1.7
			c0-0.8,0.1-1.4,0.3-2.1c0.2-0.6,0.5-1.2,0.9-1.7c0.4-0.5,0.9-0.9,1.4-1.3c0.5-0.4,1.1-0.7,1.7-1.1c0.6-0.3,1.3-0.6,2-0.8
			c0.7-0.2,1.4-0.5,2-0.7c-0.1-0.5-0.1-0.9-0.2-1.3c-0.1-0.4-0.1-0.8-0.1-1.2c0-0.9,0.2-1.8,0.5-2.6c0.3-0.8,0.7-1.5,1.3-2.1
			c0.6-0.6,1.3-1.1,2.1-1.4c0.8-0.3,1.7-0.5,2.7-0.5c0.6,0,1.1,0.1,1.5,0.3c0.4,0.2,0.8,0.4,1.1,0.7c0.3,0.3,0.6,0.7,0.7,1.1
			c0.2,0.4,0.3,0.8,0.3,1.3c0,0.8-0.2,1.5-0.6,2.1c-0.4,0.6-0.9,1.1-1.6,1.6c-0.6,0.5-1.3,0.9-2.1,1.2c-0.8,0.3-1.5,0.7-2.2,1
			c0.3,1.2,0.6,2.3,1,3.5c0.4,1.1,0.9,2.2,1.3,3.1c0.2-0.2,0.5-0.5,0.8-0.9c0.3-0.4,0.6-0.8,0.9-1.2c0.3-0.4,0.5-0.8,0.7-1.2
			c0.2-0.4,0.3-0.8,0.3-1.1c0-0.3-0.2-0.5-0.5-0.6c-0.3-0.1-0.8-0.2-1.4-0.2l0.2-0.7H305.5z M292.4,477.3c-0.6,0.3-1.2,0.6-1.9,1
			c-0.6,0.4-1.2,0.8-1.6,1.3c-0.5,0.5-0.9,1.1-1.2,1.7c-0.3,0.7-0.5,1.4-0.5,2.2c0,0.6,0.1,1.1,0.3,1.5c0.2,0.4,0.4,0.8,0.7,1
			c0.3,0.3,0.7,0.5,1.1,0.6c0.4,0.1,0.8,0.2,1.2,0.2c0.4,0,0.8,0,1.2-0.1s0.8-0.1,1.2-0.2c0.4-0.1,0.8-0.3,1.2-0.5
			c0.4-0.2,0.8-0.5,1.2-0.9c-0.3-0.7-0.7-1.3-1-2c-0.3-0.7-0.6-1.4-0.8-2.1s-0.5-1.3-0.7-2C292.7,478.4,292.5,477.8,292.4,477.3z
			 M295.2,475.1c0.5-0.2,1.1-0.5,1.6-0.8c0.5-0.3,1-0.7,1.5-1.1c0.4-0.4,0.8-0.9,1.1-1.4c0.3-0.5,0.4-1.2,0.4-1.8
			c0-0.6-0.1-1.1-0.5-1.5c-0.3-0.4-0.7-0.6-1.2-0.6c-0.6,0-1.1,0.2-1.5,0.5c-0.4,0.3-0.7,0.7-1,1.2c-0.3,0.5-0.4,1-0.6,1.6
			c-0.1,0.6-0.2,1.1-0.2,1.7c0,0.4,0,0.8,0.1,1.2C295.1,474.4,295.1,474.8,295.2,475.1z"/>
		<path class="st2" d="M327.5,459.5l-3.9,13.8c1.3-1.3,2.4-2.2,3.4-2.7c1-0.5,2-0.7,3-0.7c1.5,0,2.7,0.5,3.6,1.5
			c0.9,1,1.4,2.3,1.4,4c0,2.1-0.6,4.3-1.8,6.4c-1.2,2.1-2.8,3.8-4.6,5c-1.9,1.2-3.7,1.8-5.5,1.8c-2,0-4.1-0.8-6.2-2.3l6.1-21
			c0.5-1.6,0.7-2.6,0.7-2.8c0-0.3-0.1-0.6-0.3-0.8c-0.3-0.2-0.8-0.4-1.4-0.4c-0.3,0-0.7,0-1.3,0.1v-0.8L327.5,459.5z M319.7,486.4
			c1.3,0.7,2.5,1.1,3.5,1.1c1.2,0,2.4-0.4,3.7-1.3c1.3-0.9,2.4-2.3,3.3-4.4c0.9-2,1.4-4.1,1.4-6.2c0-1.2-0.3-2.2-0.9-2.9
			c-0.6-0.7-1.3-1-2.2-1c-1.2,0-2.5,0.5-3.6,1.5c-1.2,1-2,2.4-2.5,4.2L319.7,486.4z"/>
		<path class="st2" d="M341,480.4c-0.1,0.7-0.1,1.2-0.1,1.7c0,1.2,0.4,2.2,1.3,3s1.9,1.3,3.1,1.3c1,0,1.9-0.2,2.8-0.6
			c0.9-0.4,2.2-1.3,4-2.6l0.4,0.6c-3.2,3.1-6.2,4.7-9,4.7c-1.9,0-3.4-0.6-4.4-1.8c-1-1.2-1.5-2.6-1.5-4.1c0-2,0.6-4,1.8-6.1
			c1.2-2.1,2.8-3.7,4.6-4.9c1.9-1.2,3.8-1.7,5.7-1.7c1.4,0,2.5,0.3,3.1,0.9c0.7,0.6,1,1.3,1,2c0,1.1-0.4,2.2-1.3,3.2
			c-1.2,1.3-2.9,2.4-5.1,3.2C345.8,479.7,343.7,480.1,341,480.4z M341.2,479.5c2-0.2,3.6-0.6,4.8-1.2c1.6-0.7,2.9-1.6,3.7-2.6
			c0.8-1,1.2-2,1.2-2.9c0-0.6-0.2-1-0.5-1.4c-0.4-0.3-0.9-0.5-1.5-0.5c-1.4,0-2.8,0.7-4.3,2.2C343,474.5,341.9,476.6,341.2,479.5z"
			/>
		<path class="st2" d="M373.6,469.9l-3.9,13.6l-0.4,1.8c0,0.2-0.1,0.3-0.1,0.4c0,0.2,0.1,0.4,0.2,0.6c0.1,0.1,0.2,0.2,0.4,0.2
			c0.2,0,0.4-0.1,0.7-0.3c0.5-0.4,1.2-1.2,2.1-2.4l0.7,0.5c-0.9,1.4-1.9,2.4-2.8,3.2c-1,0.7-1.9,1.1-2.7,1.1c-0.6,0-1-0.1-1.3-0.4
			c-0.3-0.3-0.4-0.7-0.4-1.3c0-0.7,0.1-1.5,0.4-2.6l0.4-1.5c-1.7,2.3-3.4,3.9-4.8,4.8c-1.1,0.7-2.1,1-3.1,1c-1,0-1.8-0.4-2.5-1.2
			c-0.7-0.8-1.1-1.9-1.1-3.3c0-2.1,0.6-4.4,1.9-6.7c1.3-2.4,2.9-4.2,4.9-5.7c1.5-1.1,3-1.7,4.3-1.7c0.8,0,1.5,0.2,2,0.6
			c0.5,0.4,1,1.1,1.2,2.1l0.7-2.3L373.6,469.9z M366.5,470.9c-0.9,0-1.8,0.4-2.7,1.2c-1.4,1.1-2.6,2.8-3.6,5c-1.1,2.2-1.6,4.2-1.6,6
			c0,0.9,0.2,1.6,0.7,2.2c0.5,0.5,1,0.8,1.6,0.8c1.5,0,3-1.1,4.7-3.2c2.3-2.9,3.4-5.8,3.4-8.8c0-1.1-0.2-2-0.7-2.5
			C367.8,471.2,367.2,470.9,366.5,470.9z"/>
		<path class="st2" d="M394.1,470.4l-3.5,11.9c-0.5,1.8-0.8,2.9-0.8,3.4c0,0.2,0,0.4,0.1,0.5c0.1,0.1,0.2,0.2,0.4,0.2
			c0.2,0,0.5-0.1,0.8-0.3c0.3-0.2,1-1,2.1-2.5l0.6,0.5c-1.1,1.7-2.1,2.9-3.2,3.7c-0.7,0.5-1.4,0.8-2.1,0.8c-0.5,0-0.9-0.1-1.2-0.4
			c-0.3-0.3-0.4-0.7-0.4-1.1c0-0.5,0.1-1.1,0.3-1.8c0.2-1,0.8-3.1,1.8-6.4c-2.3,3.7-4.2,6.3-5.7,7.7c-1.5,1.4-2.9,2.1-4.3,2.1
			c-0.6,0-1.1-0.2-1.6-0.6c-0.4-0.4-0.6-1-0.6-1.6c0-1,0.3-2.5,0.9-4.6l1.7-6.2c0.4-1.5,0.6-2.4,0.6-2.8c0-0.2-0.1-0.3-0.2-0.4
			s-0.2-0.2-0.4-0.2c-0.3,0-0.6,0.1-0.8,0.3s-0.9,0.9-1.9,2.2l-0.6-0.4c1-1.5,2.1-2.7,3.2-3.4c0.9-0.6,1.6-0.9,2.4-0.9
			c0.5,0,0.9,0.2,1.2,0.5c0.3,0.3,0.5,0.7,0.5,1.2c0,0.7-0.3,2-0.8,3.9l-1.9,6.5c-0.5,1.8-0.8,2.9-0.8,3.3c0,0.3,0.1,0.5,0.3,0.6
			c0.2,0.2,0.4,0.2,0.7,0.2c0.4,0,1-0.2,1.7-0.7c0.7-0.4,1.7-1.4,2.8-2.9c1.2-1.5,2.2-2.9,2.9-4.3c0.8-1.3,1.6-3.4,2.5-6.3l0.4-1.5
			H394.1z"/>
		<path class="st2" d="M406,464.9l-1.6,5.4h3.1l-0.3,1.3h-3.1l-3.4,11.8c-0.4,1.3-0.6,2.1-0.6,2.5c0,0.2,0.1,0.4,0.2,0.5
			c0.1,0.1,0.2,0.2,0.4,0.2c0.3,0,0.8-0.2,1.3-0.7c0.3-0.3,1-1.1,2.1-2.5l0.7,0.5c-1.2,1.8-2.4,3.1-3.5,3.8
			c-0.7,0.5-1.5,0.8-2.3,0.8c-0.6,0-1.1-0.2-1.4-0.6c-0.4-0.4-0.6-0.8-0.6-1.4c0-0.7,0.2-1.8,0.6-3.3l3.3-11.6h-3l0.2-0.8
			c1.5-0.4,2.7-1,3.7-1.8c1-0.8,2.1-2.2,3.3-4.1H406z"/>
		<path class="st2" d="M411.6,480.4c-0.1,0.7-0.1,1.2-0.1,1.7c0,1.2,0.4,2.2,1.3,3s1.9,1.3,3.1,1.3c1,0,1.9-0.2,2.8-0.6
			c0.9-0.4,2.2-1.3,4-2.6l0.4,0.6c-3.2,3.1-6.2,4.7-9,4.7c-1.9,0-3.4-0.6-4.4-1.8c-1-1.2-1.5-2.6-1.5-4.1c0-2,0.6-4,1.8-6.1
			c1.2-2.1,2.8-3.7,4.6-4.9c1.9-1.2,3.8-1.7,5.7-1.7c1.4,0,2.5,0.3,3.1,0.9c0.7,0.6,1,1.3,1,2c0,1.1-0.4,2.2-1.3,3.2
			c-1.2,1.3-2.9,2.4-5.1,3.2C416.4,479.7,414.3,480.1,411.6,480.4z M411.8,479.5c2-0.2,3.6-0.6,4.8-1.2c1.6-0.7,2.9-1.6,3.7-2.6
			c0.8-1,1.2-2,1.2-2.9c0-0.6-0.2-1-0.5-1.4c-0.4-0.3-0.9-0.5-1.5-0.5c-1.4,0-2.8,0.7-4.3,2.2C413.6,474.5,412.5,476.6,411.8,479.5z
			 M423.8,459.9l-5.9,6.9h-0.7l2.1-6.9H423.8z"/>
	</g>
	<polygon points="243,60 237,181 287,182 282,61 	"/>
	<path d="M421,179.4c-0.2-0.1-0.2-0.2-0.3-0.2"/>
	<path d="M420.3,227.5c0.2-0.3,0.4-0.5,0.7-0.7"/>
	<g>
		<polygon points="206.8,62.1 206,55 425,57 425,61 		"/>
	</g>
	<g>
		<polygon points="203.2,183.1 202.5,176 317,179 317,183 		"/>
	</g>
	<g>
		<polygon points="425,348.7 275.8,348.6 276,345 425,345 		"/>
	</g>
	<g>
		<polygon points="96.9,348.7 96.9,301.2 102,301 102,345 236,345 236.1,348.6 		"/>
	</g>
	<g>
		<rect x="421" y="58" width="4" height="290"/>
	</g>
	<g>
		<path d="M262,175.5c-58.1,0-105,49.5-105,100.4S203.9,357,262,357s105-30.2,105-81.1S320.1,175.5,262,175.5z M262,342.4
			c-45.1,0-79.8-33.8-79.8-73.3S216.9,178,262,178s79.8,51.5,79.8,91.1S307.1,342.4,262,342.4z"/>
	</g>
</g>
<g id="Calque_8">
</g>
<g id="motif_2_">
</g>
<g id="Calque_9">
</g>
<g id="Calque_12">
</g>
</svg>
