<?xml version="1.0" encoding="UTF-8" standalone="no"?>
<!-- Generator: Adobe Illustrator 22.0.1, SVG Export Plug-In . SVG Version: 6.00 Build 0)  -->

<svg
   xmlns:dc="http://purl.org/dc/elements/1.1/"
   xmlns:cc="http://creativecommons.org/ns#"
   xmlns:rdf="http://www.w3.org/1999/02/22-rdf-syntax-ns#"
   xmlns:svg="http://www.w3.org/2000/svg"
   xmlns="http://www.w3.org/2000/svg"
   xmlns:sodipodi="http://sodipodi.sourceforge.net/DTD/sodipodi-0.dtd"
   xmlns:inkscape="http://www.inkscape.org/namespaces/inkscape"
   version="1.1"
   x="0px"
   y="0px"
   viewBox="0 0 403.46863 371.37314"
   xml:space="preserve"
   id="svg96"
   sodipodi:docname="Logo.svg"
   width="403.46863"
   height="371.37314"
   inkscape:version="0.92.3 (unknown)"><metadata
   id="metadata102"><rdf:RDF><cc:Work
       rdf:about=""><dc:format>image/svg+xml</dc:format><dc:type
         rdf:resource="http://purl.org/dc/dcmitype/StillImage" /><dc:title></dc:title></cc:Work></rdf:RDF></metadata><defs
   id="defs100">
	
	
	
	
	
	
	
	
	
	
</defs><sodipodi:namedview
   pagecolor="#ffffff"
   bordercolor="#666666"
   borderopacity="1"
   objecttolerance="10"
   gridtolerance="10"
   guidetolerance="10"
   inkscape:pageopacity="0"
   inkscape:pageshadow="2"
   inkscape:window-width="1867"
   inkscape:window-height="1025"
   id="namedview98"
   showgrid="false"
   inkscape:zoom="0.43784787"
   inkscape:cx="188.0243"
   inkscape:cy="123.46103"
   inkscape:window-x="1973"
   inkscape:window-y="27"
   inkscape:window-maximized="1"
   inkscape:current-layer="svg96" />
<style
   type="text/css"
   id="style2">
	.st0{display:none;}
	.st1{display:inline;}
	.st2{fill:#DB0073;}
	.st3{fill:none;stroke:#000000;stroke-width:2.6657;stroke-miterlimit:10;}
</style>
<g
   id="Calque_1"
   class="st0"
   style="display:none"
   transform="translate(-96.899999,-54.999999)">
</g>
<g
   id="Calque_2"
   transform="translate(-96.899999,-54.999999)">
</g>
<g
   id="Calque_6"
   transform="translate(-96.899999,-54.999999)">
</g>
<g
   id="Calque_3"
   transform="translate(-96.899999,-54.999999)">
</g>
<g
   id="motif_1_"
   transform="translate(-96.899999,-54.999999)">
</g>
<g
   id="cadre"
   transform="translate(-96.899999,-54.999999)">
</g>
<g
   id="motif"
   class="st0"
   style="display:none"
   transform="translate(-96.899999,-54.999999)">
</g>
<polygon
   id="polygon61"
   points="237,181 287,182 282,61 243,60 "
   transform="matrix(1.2297124,0,0,1.2297124,-119.15913,-67.634182)" /><path
   inkscape:connector-curvature="0"
   id="path63"
   d="m 398.54979,152.97622 c -0.24594,-0.12297 -0.24594,-0.24594 -0.36891,-0.24594"
   style="stroke-width:1.22971237" /><path
   inkscape:connector-curvature="0"
   id="path65"
   d="m 397.689,212.12539 c 0.24594,-0.36891 0.49188,-0.61485 0.86079,-0.8608"
   style="stroke-width:1.22971237" /><g
   id="g69"
   transform="matrix(1.2297124,0,0,1.2297124,-119.15913,-67.634182)">
		<polygon
   id="polygon67"
   points="206,55 425,57 425,61 206.8,62.1 " />
	</g><g
   id="g73"
   transform="matrix(1.2297124,0,0,1.2297124,-119.15913,-67.634182)">
		<polygon
   id="polygon71"
   points="202.5,176 317,179 317,183 203.2,183.1 " />
	</g><g
   id="g77"
   transform="matrix(1.2297124,0,0,1.2297124,-119.15913,-67.634182)">
		<polygon
   id="polygon75"
   points="275.8,348.6 276,345 425,345 425,348.7 " />
	</g><g
   id="g81"
   transform="matrix(1.2297124,0,0,1.2297124,-119.15913,-67.634182)">
		<polygon
   id="polygon79"
   points="236.1,348.6 96.9,348.7 96.9,301.2 102,301 102,345 236,345 " />
	</g><g
   id="g85"
   transform="matrix(1.2297124,0,0,1.2297124,-119.15913,-67.634182)">
		<rect
   id="rect83"
   height="290"
   width="4"
   y="58"
   x="421" />
	</g><g
   id="g89"
   transform="matrix(1.2297124,0,0,1.2297124,-119.15913,-67.634182)">
		<path
   inkscape:connector-curvature="0"
   id="path87"
   d="m 262,175.5 c -58.1,0 -105,49.5 -105,100.4 0,50.9 46.9,81.1 105,81.1 58.1,0 105,-30.2 105,-81.1 C 367,225 320.1,175.5 262,175.5 Z m 0,166.9 c -45.1,0 -79.8,-33.8 -79.8,-73.3 0,-39.5 34.7,-91.1 79.8,-91.1 45.1,0 79.8,51.5 79.8,91.1 0,39.6 -34.7,73.3 -79.8,73.3 z" />
	</g>
<g
   id="Calque_8"
   transform="translate(-96.899999,-54.999999)">
</g>
<g
   id="motif_2_"
   transform="translate(-96.899999,-54.999999)">
</g>
<g
   id="Calque_9"
   transform="translate(-96.899999,-54.999999)">
</g>
<g
   id="Calque_12"
   transform="translate(-96.899999,-54.999999)">
</g>
</svg>