<?xml version="1.0" encoding="UTF-8"?>
<svg id="Calque_1" xmlns="http://www.w3.org/2000/svg" viewBox="0 0 1063.16 1063.16">
  <defs>
    <style>
      .cls-1 {
        fill: #1d1d1b;
      }
    </style>
  </defs>
  <g>
    <path class="cls-1" d="M502.44,702.58c1.63-3.55,3.49-7.32,5.54-11.21l.23-.44-6.88-3.63-.23.44c-2.06,3.91-3.99,7.82-5.72,11.6l-.21.46,7.06,3.23.21-.45Z"/>
    <path class="cls-1" d="M631.02,718.87c-2.9,5.73-11.79,17.72-23.31,25.48-9.67,6.51-18.31,8.62-23.14,5.66-3.42-2.11-4.77-6.81-3.91-13.6.82-6.47,3.04-14.49,6.62-23.84l.14-.38-.33-.22c-3.28-2.16-8.26-4.77-13.33-4.91-.61,0-1.23,0-1.84.04-2.86.18-5.75.89-8.6,2.09-6.71,2.84-13.42,8.11-19.94,15.67-2.17,2.51-4.2,5.17-6.07,7.9-3.81,3.92-8.07,7.9-12.3,11-13.16,9.66-24.49,13.21-30.31,9.5-4.17-2.65-5.37-9.03-3.49-18.43,1.29-6.45,3.85-14.18,7.63-23l.2-.46-7.14-3.06-.2.46c-2.2,5.14-3.99,9.88-5.41,14.26-9.56,12.27-31.24,36.48-43.47,36.51h-.04c-2.99,0-5.38-.99-7.12-2.95-4.21-4.74-3.62-13.74-3.17-17.39,1.79-14.59,13.13-53.53,27.54-83.81l.21-.45-7.02-3.34-.21.45c-11.1,23.32-20,50.41-24.74,69.19-9.49,11.6-39.02,40.19-61.12,37.95-2.9-.29-4.87-1.06-6.38-2.47-1.76-1.66-2.89-4.18-3.45-7.69-.47-2.95-.04-6.88,1.25-11.38,10.57-3.27,19.53-7.92,25.93-13.44,5.94-5.12,9.47-10.58,10.22-15.78.41-2.85-.12-5.39-1.53-7.35-1.49-2.06-4.05-3.34-6.86-3.45-5.19-.18-11.09,2.78-18.01,9.06l-.12.1c-4.39,4.31-8.41,9.7-11.63,15.54-5.08,4.62-11.93,10.34-18.33,14.9-9.96,7.09-28.99,19.28-44.42,21.2-5.6.7-10.27-.02-12.18-1.89-2.69-2.62-3.31-6.38-1.96-11.85,1.37-5.54,4.96-12.42,10.12-19.38,6.22-8.39,10.89-12.83,13.72-15.07,3.36-2.67,5.75-3.31,6.39-3.38.07.2.16.59.17,1.21.03,1.83-.76,5.42-3.07,9.99l-.23.45,6.93,3.51.23-.45c2.7-5.33,3.98-9.78,3.92-13.62-.04-2.27-.56-4.11-1.6-5.63-1.16-1.7-3.18-2.91-5.27-3.17-.5-.06-1-.09-1.52-.07-3.19.09-6.42,1.61-10.79,5.08-4.65,3.69-9.74,9.25-15.13,16.53-5.93,8-9.78,15.46-11.43,22.15-1.96,7.96-.51,14.81,4.08,19.28,2.94,2.87,6.97,4.31,12.01,4.31,1.74,0,3.6-.17,5.57-.51,6.32-1.1,13.59-3.82,22.21-8.33,11.12-5.81,23.55-14.21,35.53-23.89-2.03,6.13-2.66,11.67-1.89,16.55.82,5.21,2.77,9.29,5.8,12.14,2.95,2.77,6.9,4.39,11.14,4.56.41.02.81.02,1.22.02,10.54,0,22.89-5.29,36.72-15.75,7.11-5.37,14.6-12.21,21.31-19.38-.49,2.46-.85,4.62-1.07,6.42-.96,7.73-.62,13.81,1.04,18.6,1.57,4.52,4.81,8.02,9.12,9.88,1.47.63,3.06.93,4.75.93,12.82,0,31.02-17.05,43.4-31.81-.8,4.9-.89,9.16-.28,12.79.79,4.66,2.85,8.35,5.95,10.69,2.68,2.02,6.04,3.07,9.78,3.07.47,0,.94-.02,1.42-.05,6.3-.43,15.41-2.69,29.05-13.97-1.01,2.69-1.67,5.13-1.99,7.4-.35,2.5-.54,5.75,1.23,8.65,1.38,2.25,3.92,3.85,6.63,4.17.46.05.92.08,1.39.08,1.87,0,3.9-.43,6.25-1.32,4.95-1.87,10.45-5.51,16.35-10.81,4.86-4.36,9.52-9.47,13.56-14.85.03,2.92.42,5.48,1.17,7.79,1.35,4.17,4.22,7.39,7.89,8.84,3.41,1.35,7.33,1.46,11.66.33,18.43-4.8,34.71-22.92,43.05-36.98l.27-.45-5.19-2.81-.23.46ZM534.7,756.84c.3-2.14,1.15-4.9,2.38-7.76,2.7-6.31,7.15-13.28,12.19-19.13,5.57-6.46,11.63-11.28,17.07-13.58,2.59-1.09,4.87-1.64,6.98-1.67.3,0,.62,0,.93.02,1.13.07,2.31.34,3.52.8-4.7,14.25-15.49,27.52-24.08,35.23-4.97,4.46-10.04,7.86-13.91,9.32-1.85.7-3.27.86-3.98.78q-.64-.08-.9-.5c-.17-.28-.46-1.56-.18-3.5ZM373.29,711.98l.33.37c6.25-5.65,10.84-7.02,12.41-6.98.71.03.78.12.86.24.01.02.3.44.12,1.69-.34,2.34-2.53,6.62-7.6,11-4.26,3.67-10.12,7.03-17.03,9.74,3.04-5.97,6.98-11.48,11.22-15.67l-.33-.38Z"/>
    <rect class="cls-1" x="643.33" y="761.13" width="10.6" height="7.77" transform="translate(-302.18 1084.31) rotate(-68.27)"/>
    <path class="cls-1" d="M788.83,717.98l-.43.32c-13.4,9.89-35.36,22.69-46.16,27.65,2.64-4.14,5.63-9.87,6.9-13.29,2.67-7.19,2.7-17.33-3.55-22.63-2.98-2.43-7.07-3.17-12.15-2.17-3.4.67-6.93,2.3-10.79,5-5.92,4.14-12.15,10.49-19.03,19.42-2.06,2.67-3.61,4.68-5.24,6.97l25.78-84.51.13-.44-6.96-2.71-31.96,105.68c-.82,2.57-2.33,7.35.29,9.04,1.32.82,2.83.63,3.72.21.91-.43,1.14-.71,1.34-1.02.16-.19.26-.32.36-.45.36-.49.67-.99,1.14-1.75.36-.58.79-1.28,1.28-2.08.74-1.22,1.63-2.67,2.65-4.3,4.85-7.78,9.3-14.29,13.62-19.89,4.34-5.63,10.87-13.28,17.33-17.8,3.03-2.12,5.69-3.38,7.89-3.76,2.5-.42,4.45-.12,5.83.92,1.35,1.02,2.17,2.75,2.45,5.16.26,2.32-.23,5.21-1.41,8.38-2.24,6.01-7.1,13.28-13.68,20.47-.3.33-.61.66-.92.98l-.27.28-.61.31c-8.47,4.3-15.79,8.02-21.01,11.08-3.15,1.85-5.12,3.19-6.58,4.48-.8.71-1.57,1.44-2.18,2.64-.67,1.31-.84,3.54.19,5.08,1.11,1.67,3.07,2.43,4.41,2.58.31.03.61.05.9.05,1.24,0,2.33-.27,3.26-.55,2.46-.74,5.2-2.12,8.59-4.33,5.68-3.7,11.98-9.03,17.76-15.02,16.99-8.63,41.12-21.7,59.77-35l.39-.28-3.05-4.72Z"/>
  </g>
  <g>
    <path class="cls-1" d="M586.74,311.17c-16.7-16.7-38.91-25.9-62.53-25.9h0c-23.62,0-45.83,9.2-62.53,25.9-16.7,16.7-25.9,38.91-25.9,62.53v151.07c0,23.4,9.06,45.47,25.51,62.13.72.73,1.46,1.45,2.22,2.17h0s.73.68.73.68c0,0,.02.01.02.02l1.97,1.82v-.04c16.11,13.99,36.59,21.66,57.99,21.66s43.59-8.33,59.97-23.45c1.01-.93,2-1.89,2.95-2.85,16.45-16.66,25.52-38.73,25.52-62.14v-151.07c0-23.62-9.2-45.83-25.9-62.53ZM443.13,418.26c.21-.27.41-.54.62-.8.2-.25.4-.5.61-.75.22-.27.44-.55.66-.82.2-.24.4-.48.6-.72.23-.27.46-.55.69-.82.2-.24.41-.47.62-.71.24-.27.47-.54.71-.81.21-.24.43-.48.65-.72.23-.26.46-.52.7-.77.25-.27.51-.54.77-.81.2-.22.4-.43.61-.65.46-.48.93-.96,1.4-1.43,9.41-9.41,20.37-16.8,32.56-21.96.48-.2.96-.4,1.45-.6.18-.07.37-.15.56-.22.3-.12.6-.24.9-.36.21-.08.43-.16.64-.24.28-.1.55-.21.83-.31.22-.08.45-.16.67-.24.27-.1.54-.2.81-.29.23-.08.45-.16.68-.23.27-.09.54-.19.81-.28.23-.08.45-.15.68-.22.27-.09.54-.18.82-.26.23-.07.45-.14.68-.21.27-.08.54-.17.81-.25v33.54h-20.02v68.01c-.05.03-.1.05-.15.08-.33.18-.67.35-1,.53-.56.3-1.11.62-1.67.93-.27.15-.54.3-.8.45-.82.47-1.63.95-2.43,1.45-.09.05-.17.11-.26.16-.72.44-1.43.89-2.14,1.35-.28.18-.55.37-.82.55-.51.34-1.03.68-1.54,1.03-.31.22-.62.44-.94.66-.46.33-.92.65-1.38.98-.33.24-.65.49-.98.73-.43.32-.86.64-1.29.97-.34.26-.67.52-1,.78-.41.32-.82.65-1.23.98-.34.27-.67.55-1,.83-.4.33-.79.65-1.18.99-.34.29-.66.58-1,.87-.38.33-.76.67-1.14,1.01-.33.3-.66.6-.98.9-.37.34-.74.68-1.1,1.03-.33.31-.65.62-.97.94-.36.35-.71.7-1.07,1.05-.32.32-.63.64-.95.97-.35.36-.69.71-1.03,1.07-.31.33-.62.66-.93,1-.33.36-.67.72-1,1.09-.3.34-.6.68-.9,1.02-.32.37-.65.74-.97,1.12-.07.08-.14.16-.21.24v-91.08c.18-.23.36-.46.54-.69ZM598.05,409.88c.22.23.43.46.65.69.24.26.49.52.73.78.21.23.42.46.63.7.24.27.48.53.72.8.19.22.38.44.58.66.25.29.5.57.75.86.18.21.35.42.53.63.26.3.51.61.77.92.17.21.34.42.51.63.25.31.51.63.76.94.17.22.34.44.51.66.22.28.43.55.64.83v91.08c-.07-.08-.14-.16-.21-.24-.32-.37-.64-.74-.96-1.11-.3-.34-.6-.69-.9-1.02-.33-.37-.66-.73-1-1.09-.31-.33-.62-.67-.93-1-.34-.36-.69-.71-1.03-1.07-.32-.32-.63-.65-.95-.97-.35-.35-.71-.7-1.06-1.05-.32-.31-.64-.63-.97-.94-.36-.34-.73-.68-1.1-1.02-.33-.3-.66-.61-.99-.91-.37-.34-.75-.67-1.13-1-.33-.29-.66-.59-1-.88-.39-.33-.78-.66-1.17-.98-.34-.28-.67-.56-1.01-.84-.4-.33-.81-.65-1.22-.97-.34-.26-.67-.53-1.01-.79-.42-.32-.85-.64-1.28-.96-.33-.25-.66-.5-1-.74-.45-.33-.91-.65-1.36-.97-.32-.22-.63-.45-.95-.67-.5-.34-1.01-.68-1.51-1.01-.28-.19-.56-.38-.85-.57-.69-.45-1.38-.88-2.08-1.31-.11-.07-.21-.14-.32-.2-.8-.49-1.62-.97-2.43-1.45-.27-.16-.55-.31-.82-.46-.55-.31-1.1-.62-1.65-.92-.33-.18-.67-.35-1.01-.53-.05-.03-.1-.05-.15-.08v-68.01h-20.03v-33.54c.27.08.55.17.82.25.22.07.45.14.67.21.28.09.56.18.84.27.22.07.43.14.65.21.29.1.58.2.87.3.21.07.41.14.62.21.3.11.61.22.91.33.19.07.38.14.57.21.32.12.65.24.97.37.17.06.33.13.5.19.36.14.72.28,1.08.43.13.05.25.1.38.15.49.2.97.4,1.46.6,9.6,4.06,18.42,9.5,26.33,16.22,2.15,1.82,4.23,3.73,6.24,5.74.47.47.94.95,1.4,1.43ZM566.95,423.12v110.11h-85.49v-110.11h85.49ZM501.49,416.29v-71.98c0-3.99,3.25-7.24,7.24-7.24h30.96c3.99,0,7.24,3.25,7.24,7.24v71.98h-45.44ZM573.77,536.94v-47.7c8.37,4.63,16.06,10.42,22.88,17.24,3.28,3.28,6.36,6.81,9.17,10.51v7.79c0,11.02-2.16,21.71-6.41,31.77-.59,1.4-1.23,2.78-1.89,4.14l-23.74-23.74ZM605.82,412.01c-13.6-16.08-31.93-27.98-52.07-33.78v-33.92c0-7.75-6.31-14.06-14.06-14.06h-30.96c-7.75,0-14.06,6.31-14.06,14.06v33.92c-20.14,5.79-38.47,17.7-52.07,33.78v-38.31c0-11.02,2.16-21.71,6.41-31.77,4.11-9.72,10-18.45,17.49-25.94,7.5-7.5,16.23-13.38,25.94-17.49,10.06-4.25,20.75-6.41,31.77-6.41s21.71,2.16,31.77,6.41c9.72,4.11,18.45,10,25.94,17.49,7.5,7.5,13.38,16.23,17.49,25.94,4.25,10.06,6.41,20.75,6.41,31.77v38.31ZM442.59,516.98c2.82-3.7,5.89-7.23,9.17-10.51,6.82-6.82,14.5-12.61,22.88-17.24v47.71l-23.74,23.74c-.67-1.36-1.3-2.74-1.9-4.15-4.25-10.06-6.41-20.75-6.41-31.77v-7.79ZM453.04,564.77l24.72-24.72h92.89l24.71,24.71c-3.23,5.74-7.14,11.06-11.7,15.9-.67.71-1.23,1.29-1.76,1.82-.34.34-.68.67-1.02,1l-.03.03c-7.26,7.01-15.64,12.55-24.89,16.46-10.06,4.25-20.75,6.41-31.77,6.41s-21.71-2.16-31.77-6.41c-9.24-3.91-17.6-9.43-24.85-16.42l-.05-.05-.02-.02-.22-.22c-.27-.26-.53-.52-.8-.78-.54-.54-1.1-1.12-1.77-1.83-4.55-4.84-8.46-10.16-11.68-15.88Z"/>
    <path class="cls-1" d="M553.52,441.75h-58.62v72.84h58.62v-72.84ZM501.72,507.77v-59.2h44.98v59.2h-44.98Z"/>
  </g>
</svg>