<svg xmlns="http://www.w3.org/2000/svg" width="385" height="63" viewBox="0 0 385 63"><path fill="#b01065" d="M377.06 47.01l1.16.69v-1.42l-.13-1.95-.27-.15a8.48 8.48 0 0 0-4.24-1.18c-1.52 0-2.83.52-3.92 1.54a5.03 5.03 0 0 0-1.66 3.79 4.7 4.7 0 0 0 2.39 4.25c.58.32 1.52.74 2.87 1.26 1.43.57 2 1.06 2.23 1.38.32.44.48.94.48 1.49 0 .75-.25 1.34-.78 1.85s-1.19.77-1.98.77c-1.01 0-2.28-.56-3.75-1.67l-1.23-.93v1.6l.11 2.02.23.16a8.5 8.5 0 0 0 4.71 1.63c1.56 0 2.9-.53 3.98-1.58a5.26 5.26 0 0 0 1.66-3.91c0-1.14-.25-2.1-.75-2.85a5.18 5.18 0 0 0-1.75-1.68c-.62-.35-1.56-.76-2.88-1.27-1.47-.57-1.98-1.04-2.16-1.27-.29-.4-.43-.82-.43-1.3 0-.71.24-1.26.75-1.74.53-.48 1.2-.73 2-.73.9 0 2.03.4 3.36 1.2zM361 61.69h2.84V43H361zM355.28 54.56a16.91 16.91 0 0 0-1.44-1.99 4.81 4.81 0 0 0 2.52-4.35c0-1.6-.57-2.89-1.7-3.84-1.09-.92-2.64-1.38-4.61-1.38H345v18.69h2.83v-8.2h1.49c.86 0 1.53.15 1.94.44.25.18.86.77 2.07 2.72l3.25 5.04h3.26zm-2.68-4.47c-.6.47-1.53.71-2.77.71h-2v-5.11h1.96c1.23 0 2.18.24 2.8.72.56.44.83 1.02.83 1.83 0 .82-.26 1.41-.82 1.85zM339.69 61.69h2.93L334.09 43h-1.56L324 61.69h2.93l2.77-5.91h7.21zm-3.99-8.59h-4.79l2.4-5.36zM324.6 48.31c0-1.63-.56-2.95-1.67-3.91-1.08-.93-2.61-1.4-4.55-1.4H313v18.69h2.84V53.7h2.42c2 0 3.57-.48 4.65-1.43a4.97 4.97 0 0 0 1.69-3.96zm-3.73 1.97c-.58.49-1.49.73-2.7.73h-2.33v-5.32h2.49c1.13 0 1.99.25 2.55.74.54.47.79 1.08.79 1.91 0 .87-.25 1.49-.8 1.94z"></path><path fill="#7e6c6b" d="M356 31.39V0h11.28c5.48 0 9.75 1.48 12.68 4.39 2.93 2.92 4.41 6.72 4.41 11.32 0 4.5-1.47 8.27-4.36 11.23-2.9 2.95-7.05 4.45-12.33 4.45zm11.56-3.62c3.61 0 6.65-1.11 9.04-3.31 2.4-2.21 3.57-5.07 3.57-8.75 0-3.6-1.16-6.46-3.53-8.72-2.35-2.24-5.46-3.37-9.23-3.37h-7.4v24.15zM342.43 31.39L321.01 6.87v24.52H317V0h3.2l21.35 24.52V0h4.02v31.39zM307.19 31.61l-4.71-10.27H289l-4.7 10.27H280L294.57 0h2.36l14.56 31.61zm-6.37-13.88l-5.1-11.08-5.06 11.08zM259 31.39V0h4.01v27.77h14.74v3.62zM234 31.39V0h4.01v27.77h14.74v3.62zM224.19 31.61l-4.72-10.27H206l-4.7 10.27H197L211.57 0h2.35l14.57 31.61zm-6.37-13.88l-5.1-11.08-5.07 11.08zM181.07 32.16c-4.83 0-8.92-1.55-12.16-4.62A15.22 15.22 0 0 1 164 16.01a15.2 15.2 0 0 1 4.82-11.45C172.01 1.54 176.06 0 180.86 0c3.24 0 6.79.88 10.57 2.61l.5.23v4.6l-1.28-.72a20.47 20.47 0 0 0-10.13-2.89c-3.57 0-6.45 1.14-8.81 3.49a11.76 11.76 0 0 0-3.5 8.77c0 3.56 1.13 6.42 3.46 8.76 2.3 2.31 5.49 3.48 9.48 3.48 2.73 0 5.18-.51 7.32-1.5V16.58h4.04v12.76l-.49.23a25.41 25.41 0 0 1-10.95 2.59zM138.19 31.61l-4.72-10.27H120l-4.7 10.27H111L125.56 0h2.36l14.57 31.61zm-6.38-13.88l-5.09-11.08-5.07 11.08zM101 31.39h4.01V0H101zM92.21 31.39l-5.45-8.53c-2.07-3.26-3.22-4.44-3.82-4.85-.81-.57-2.08-.86-3.75-.86h-3.18v14.24H72V0h8.49c3.39 0 6.04.76 7.88 2.27a7.66 7.66 0 0 1 2.85 6.25c0 3.35-1.62 5.85-4.83 7.43.85.83 1.83 2.09 2.99 3.86l7.6 11.58zm-12.1-17.85c2.31 0 4.08-.45 5.25-1.35a4.25 4.25 0 0 0 1.66-3.63c0-1.55-.56-2.73-1.69-3.59-1.2-.9-2.98-1.35-5.31-1.35h-4.01v9.92zM62.19 31.61l-4.72-10.27H44l-4.7 10.27H35L49.56 0h2.36l14.57 31.61zm-6.38-13.88L50.72 6.65l-5.07 11.08zM25.02 31.39V6.6L14.54 19.43 4.01 6.6v24.79H0V0h3.56l10.99 13.29L25.47 0h3.59v31.39z"></path></svg>
