<?xml version="1.0" encoding="utf-8"?>
<!-- Generator: Adobe Illustrator 22.0.1, SVG Export Plug-In . SVG Version: 6.00 Build 0)  -->
<svg version="1.1" xmlns="http://www.w3.org/2000/svg" xmlns:xlink="http://www.w3.org/1999/xlink" x="0px" y="0px"
	 viewBox="0 0 425.2 491.2" style="enable-background:new 0 0 425.2 491.2;" xml:space="preserve">
<style type="text/css">
	.st0{fill:#FFFFFF;}
	.st1{fill:#DB0474;}
	.st2{fill:#FFFFFF;stroke:#000000;stroke-width:2.6657;stroke-miterlimit:10;}
</style>
<g id="fond">
</g>
<g id="Calque_1">
	<path class="st0" d="M49.7,412.2v-56.4h6.6v56.4H49.7z"/>
	<path class="st0" d="M115.8,412.2h-7.5l-30.8-47.3h-0.3c0.4,5.6,0.6,10.6,0.6,15.3v32.1h-6.1v-56.4h7.4l30.7,47.1h0.3
		c-0.1-0.7-0.2-2.9-0.3-6.7c-0.2-3.8-0.2-6.5-0.2-8.1v-32.4h6.1V412.2z"/>
	<path class="st0" d="M163.1,397.2c0,5-1.8,8.8-5.4,11.6c-3.6,2.8-8.5,4.2-14.7,4.2c-6.7,0-11.8-0.9-15.4-2.6v-6.3
		c2.3,1,4.8,1.7,7.6,2.3c2.7,0.6,5.4,0.8,8.1,0.8c4.4,0,7.7-0.8,9.9-2.5c2.2-1.7,3.3-4,3.3-6.9c0-2-0.4-3.6-1.2-4.8
		s-2.1-2.4-3.9-3.5s-4.6-2.3-8.4-3.6c-5.2-1.9-9-4.1-11.2-6.7c-2.3-2.6-3.4-5.9-3.4-10.1c0-4.3,1.6-7.8,4.9-10.4
		c3.3-2.6,7.6-3.9,13-3.9c5.6,0,10.8,1,15.5,3.1l-2,5.7c-4.7-2-9.2-2.9-13.6-2.9c-3.5,0-6.2,0.7-8.1,2.2c-2,1.5-2.9,3.6-2.9,6.2
		c0,2,0.4,3.6,1.1,4.8c0.7,1.2,1.9,2.4,3.6,3.4c1.7,1,4.3,2.2,7.8,3.5c5.9,2.1,10,4.4,12.2,6.8C162,390.2,163.1,393.3,163.1,397.2z"
		/>
	<path class="st0" d="M192,412.2h-6.6v-50.6h-17.9v-5.8h42.3v5.8H192V412.2z"/>
	<path class="st0" d="M218.4,412.2v-56.4h6.6v56.4H218.4z"/>
	<path class="st0" d="M257.8,412.2h-6.6v-50.6h-17.9v-5.8h42.3v5.8h-17.9V412.2z"/>
	<path class="st0" d="M326.7,355.8v36.5c0,6.4-1.9,11.5-5.8,15.2c-3.9,3.7-9.2,5.5-16,5.5s-12-1.9-15.8-5.6
		c-3.7-3.7-5.6-8.8-5.6-15.3v-36.3h6.6v36.8c0,4.7,1.3,8.3,3.9,10.8c2.6,2.5,6.4,3.8,11.3,3.8c4.8,0,8.4-1.3,11-3.8
		s3.9-6.2,3.9-10.9v-36.7H326.7z"/>
	<path class="st0" d="M359,412.2h-6.6v-50.6h-17.9v-5.8h42.3v5.8H359V412.2z"/>
	<path class="st0" d="M66.8,450.5c0,3.5-1,6.2-2.9,8.1c-1.9,1.9-4.7,2.8-8.3,2.8h-5.9V440h6.6c3.3,0,5.9,0.9,7.8,2.8
		S66.8,447.2,66.8,450.5z M64.2,450.6c0-2.8-0.7-4.9-2.1-6.3c-1.4-1.4-3.5-2.1-6.2-2.1h-3.6v17.1h3c3,0,5.2-0.7,6.7-2.2
		C63.4,455.6,64.2,453.4,64.2,450.6z"/>
	<path class="st0" d="M83.5,461.4H71.6V440h11.9v2.2h-9.4v6.9h8.9v2.2h-8.9v7.9h9.4V461.4z"/>
	<path class="st0" d="M100.3,455.7c0,1.9-0.7,3.4-2.1,4.4s-3.2,1.6-5.6,1.6c-2.5,0-4.5-0.3-5.9-1v-2.4c0.9,0.4,1.8,0.7,2.9,0.9
		s2.1,0.3,3.1,0.3c1.7,0,2.9-0.3,3.8-0.9c0.8-0.6,1.3-1.5,1.3-2.6c0-0.7-0.1-1.3-0.4-1.8s-0.8-0.9-1.5-1.3s-1.8-0.9-3.2-1.4
		c-2-0.7-3.4-1.6-4.3-2.5c-0.9-1-1.3-2.3-1.3-3.8c0-1.7,0.6-3,1.9-3.9s2.9-1.5,4.9-1.5c2.1,0,4.1,0.4,5.9,1.2L99,443
		c-1.8-0.7-3.5-1.1-5.2-1.1c-1.3,0-2.3,0.3-3.1,0.8s-1.1,1.4-1.1,2.4c0,0.7,0.1,1.4,0.4,1.8s0.7,0.9,1.4,1.3c0.6,0.4,1.6,0.8,3,1.3
		c2.2,0.8,3.8,1.7,4.6,2.6S100.3,454.2,100.3,455.7z"/>
	<path class="st0" d="M131.1,450.7c0,3.4-0.9,6.1-2.6,8.1c-1.7,2-4.1,2.9-7.2,2.9c-3.2,0-5.6-1-7.3-2.9c-1.7-1.9-2.6-4.7-2.6-8.2
		c0-3.5,0.9-6.2,2.6-8.1c1.7-1.9,4.2-2.9,7.3-2.9c3.1,0,5.5,1,7.2,2.9C130.2,444.5,131.1,447.2,131.1,450.7z M114,450.7
		c0,2.9,0.6,5.1,1.9,6.6c1.2,1.5,3,2.2,5.4,2.2c2.4,0,4.2-0.7,5.4-2.2s1.8-3.7,1.8-6.6c0-2.9-0.6-5.1-1.8-6.6
		c-1.2-1.5-3-2.2-5.4-2.2c-2.4,0-4.2,0.8-5.4,2.2S114,447.8,114,450.7z"/>
	<path class="st0" d="M152.6,461.4h-2.8l-11.7-18h-0.1c0.2,2.1,0.2,4,0.2,5.8v12.2h-2.3V440h2.8l11.7,17.9h0.1
		c0-0.3-0.1-1.1-0.1-2.5s-0.1-2.5-0.1-3.1V440h2.3V461.4z"/>
	<path class="st0" d="M167.9,450.2h7.3v10.4c-1.1,0.4-2.3,0.6-3.5,0.8s-2.5,0.3-4.1,0.3c-3.2,0-5.8-1-7.6-2.9s-2.7-4.6-2.7-8.1
		c0-2.2,0.4-4.2,1.3-5.9c0.9-1.7,2.2-3,3.9-3.8c1.7-0.9,3.6-1.3,5.9-1.3c2.3,0,4.4,0.4,6.4,1.3l-1,2.2c-1.9-0.8-3.8-1.2-5.6-1.2
		c-2.6,0-4.6,0.8-6.1,2.3s-2.2,3.7-2.2,6.5c0,2.9,0.7,5.1,2.1,6.6s3.5,2.2,6.2,2.2c1.5,0,2.9-0.2,4.4-0.5v-6.6h-4.8V450.2z"/>
	<path class="st0" d="M180.3,461.4V440h2.5v19.2h9.4v2.3H180.3z"/>
	<path class="st0" d="M207.8,461.4h-11.9V440h11.9v2.2h-9.4v6.9h8.9v2.2h-8.9v7.9h9.4V461.4z"/>
	<path class="st0" d="M224.7,455.7c0,1.9-0.7,3.4-2.1,4.4s-3.2,1.6-5.6,1.6c-2.5,0-4.5-0.3-5.9-1v-2.4c0.9,0.4,1.8,0.7,2.9,0.9
		s2.1,0.3,3.1,0.3c1.7,0,2.9-0.3,3.8-0.9c0.8-0.6,1.3-1.5,1.3-2.6c0-0.7-0.1-1.3-0.4-1.8s-0.8-0.9-1.5-1.3s-1.8-0.9-3.2-1.4
		c-2-0.7-3.4-1.6-4.3-2.5c-0.9-1-1.3-2.3-1.3-3.8c0-1.7,0.6-3,1.9-3.9s2.9-1.5,4.9-1.5c2.1,0,4.1,0.4,5.9,1.2l-0.8,2.2
		c-1.8-0.7-3.5-1.1-5.2-1.1c-1.3,0-2.3,0.3-3.1,0.8s-1.1,1.4-1.1,2.4c0,0.7,0.1,1.4,0.4,1.8s0.7,0.9,1.4,1.3c0.6,0.4,1.6,0.8,3,1.3
		c2.2,0.8,3.8,1.7,4.6,2.6S224.7,454.2,224.7,455.7z"/>
	<path class="st1" d="M258.2,450.3L258,451c-0.5,0-1.1,0.1-1.7,0.4s-1.2,0.8-1.9,1.7c-0.4,0.5-0.7,1-1,1.3c-0.2,0.3-0.5,0.6-0.6,0.8
		c-0.2,0.2-0.3,0.4-0.4,0.5c-0.1,0.1-0.2,0.3-0.3,0.4c-0.1,0.1-0.2,0.3-0.4,0.5c-0.2,0.2-0.4,0.5-0.7,0.8c0.2,0.3,0.4,0.7,0.6,1
		c0.2,0.3,0.4,0.6,0.7,0.9c0.2,0.3,0.5,0.5,0.8,0.6c0.3,0.1,0.6,0.2,1,0.2c0.6,0,1.1-0.2,1.5-0.5c0.4-0.3,0.8-0.8,1-1.3h0.9
		c-0.6,1.3-1.3,2.2-2.2,2.8c-0.8,0.6-1.8,0.9-2.8,0.9c-0.5,0-1-0.1-1.4-0.2c-0.4-0.1-0.8-0.3-1.1-0.5s-0.6-0.5-0.9-0.7
		c-0.3-0.3-0.5-0.6-0.8-0.9c-0.5,0.5-1.1,0.9-1.6,1.2c-0.5,0.3-1,0.5-1.6,0.7c-0.5,0.2-1.1,0.3-1.7,0.4c-0.6,0.1-1.2,0.1-1.9,0.1
		c-1,0-1.8-0.1-2.5-0.5c-0.7-0.3-1.2-0.7-1.7-1.2c-0.4-0.5-0.7-1-0.9-1.6s-0.3-1.1-0.3-1.7c0-0.8,0.1-1.4,0.3-2.1
		c0.2-0.6,0.5-1.2,0.9-1.7c0.4-0.5,0.9-0.9,1.4-1.3c0.5-0.4,1.1-0.7,1.7-1.1c0.6-0.3,1.3-0.6,2-0.8c0.7-0.2,1.4-0.5,2-0.7
		c-0.1-0.5-0.1-0.9-0.2-1.3c-0.1-0.4-0.1-0.8-0.1-1.2c0-0.9,0.2-1.8,0.5-2.6c0.3-0.8,0.7-1.5,1.3-2.1c0.6-0.6,1.3-1.1,2.1-1.4
		c0.8-0.3,1.7-0.5,2.7-0.5c0.6,0,1.1,0.1,1.5,0.3c0.4,0.2,0.8,0.4,1.1,0.7c0.3,0.3,0.6,0.7,0.7,1.1c0.2,0.4,0.3,0.8,0.3,1.3
		c0,0.8-0.2,1.5-0.6,2.1c-0.4,0.6-0.9,1.1-1.6,1.6c-0.6,0.5-1.3,0.9-2.1,1.2c-0.8,0.3-1.5,0.7-2.2,1c0.3,1.2,0.6,2.3,1,3.5
		c0.4,1.1,0.9,2.2,1.3,3.1c0.2-0.2,0.5-0.5,0.8-0.9c0.3-0.4,0.6-0.8,0.9-1.2c0.3-0.4,0.5-0.8,0.7-1.2c0.2-0.4,0.3-0.8,0.3-1.1
		c0-0.3-0.2-0.5-0.5-0.6c-0.3-0.1-0.8-0.2-1.4-0.2l0.2-0.7H258.2z M245,450.7c-0.6,0.3-1.2,0.6-1.9,1c-0.6,0.4-1.2,0.8-1.6,1.3
		c-0.5,0.5-0.9,1.1-1.2,1.7c-0.3,0.7-0.5,1.4-0.5,2.2c0,0.6,0.1,1.1,0.3,1.5c0.2,0.4,0.4,0.8,0.7,1c0.3,0.3,0.7,0.5,1.1,0.6
		c0.4,0.1,0.8,0.2,1.2,0.2c0.4,0,0.8,0,1.2-0.1s0.8-0.1,1.2-0.2c0.4-0.1,0.8-0.3,1.2-0.5c0.4-0.2,0.8-0.5,1.2-0.9
		c-0.3-0.7-0.7-1.3-1-2c-0.3-0.7-0.6-1.4-0.8-2.1s-0.5-1.3-0.7-2C245.3,451.8,245.1,451.2,245,450.7z M247.8,448.5
		c0.5-0.2,1.1-0.5,1.6-0.8c0.5-0.3,1-0.7,1.5-1.1c0.4-0.4,0.8-0.9,1.1-1.4c0.3-0.5,0.4-1.2,0.4-1.8c0-0.6-0.1-1.1-0.5-1.5
		c-0.3-0.4-0.7-0.6-1.2-0.6c-0.6,0-1.1,0.2-1.5,0.5c-0.4,0.3-0.7,0.7-1,1.2c-0.3,0.5-0.4,1-0.6,1.6c-0.1,0.6-0.2,1.1-0.2,1.7
		c0,0.4,0,0.8,0.1,1.2C247.7,447.8,247.8,448.2,247.8,448.5z"/>
	<path class="st1" d="M280.1,432.9l-3.9,13.8c1.3-1.3,2.4-2.2,3.4-2.7c1-0.5,2-0.7,3-0.7c1.5,0,2.7,0.5,3.6,1.5c0.9,1,1.4,2.3,1.4,4
		c0,2.1-0.6,4.3-1.8,6.4c-1.2,2.1-2.8,3.8-4.6,5c-1.9,1.2-3.7,1.8-5.5,1.8c-2,0-4.1-0.8-6.2-2.3l6.1-21c0.5-1.6,0.7-2.6,0.7-2.8
		c0-0.3-0.1-0.6-0.3-0.8c-0.3-0.2-0.8-0.4-1.4-0.4c-0.3,0-0.7,0-1.3,0.1v-0.8L280.1,432.9z M272.4,459.8c1.3,0.7,2.5,1.1,3.5,1.1
		c1.2,0,2.4-0.4,3.7-1.3c1.3-0.9,2.4-2.3,3.3-4.4c0.9-2,1.4-4.1,1.4-6.2c0-1.2-0.3-2.2-0.9-2.9c-0.6-0.7-1.3-1-2.2-1
		c-1.2,0-2.5,0.5-3.6,1.5c-1.2,1-2,2.4-2.5,4.2L272.4,459.8z"/>
	<path class="st1" d="M293.7,453.9c-0.1,0.7-0.1,1.2-0.1,1.7c0,1.2,0.4,2.2,1.3,3s1.9,1.3,3.1,1.3c1,0,1.9-0.2,2.8-0.6
		c0.9-0.4,2.2-1.3,4-2.6l0.4,0.6c-3.2,3.1-6.2,4.7-9,4.7c-1.9,0-3.4-0.6-4.4-1.8c-1-1.2-1.5-2.6-1.5-4.1c0-2,0.6-4,1.8-6.1
		c1.2-2.1,2.8-3.7,4.6-4.9c1.9-1.2,3.8-1.7,5.7-1.7c1.4,0,2.5,0.3,3.1,0.9c0.7,0.6,1,1.3,1,2c0,1.1-0.4,2.2-1.3,3.2
		c-1.2,1.3-2.9,2.4-5.1,3.2C298.5,453.1,296.4,453.6,293.7,453.9z M293.8,452.9c2-0.2,3.6-0.6,4.8-1.2c1.6-0.7,2.9-1.6,3.7-2.6
		c0.8-1,1.2-2,1.2-2.9c0-0.6-0.2-1-0.5-1.4c-0.4-0.3-0.9-0.5-1.5-0.5c-1.4,0-2.8,0.7-4.3,2.2C295.6,447.9,294.5,450,293.8,452.9z"/>
	<path class="st1" d="M326.2,443.3l-3.9,13.6l-0.4,1.8c0,0.2-0.1,0.3-0.1,0.4c0,0.2,0.1,0.4,0.2,0.6c0.1,0.1,0.2,0.2,0.4,0.2
		c0.2,0,0.4-0.1,0.7-0.3c0.5-0.4,1.2-1.2,2.1-2.4l0.7,0.5c-0.9,1.4-1.9,2.4-2.8,3.2c-1,0.7-1.9,1.1-2.7,1.1c-0.6,0-1-0.1-1.3-0.4
		c-0.3-0.3-0.4-0.7-0.4-1.3c0-0.7,0.1-1.5,0.4-2.6l0.4-1.5c-1.7,2.3-3.4,3.9-4.8,4.8c-1.1,0.7-2.1,1-3.1,1c-1,0-1.8-0.4-2.5-1.2
		c-0.7-0.8-1.1-1.9-1.1-3.3c0-2.1,0.6-4.4,1.9-6.7c1.3-2.4,2.9-4.2,4.9-5.7c1.5-1.1,3-1.7,4.3-1.7c0.8,0,1.5,0.2,2,0.6
		c0.5,0.4,1,1.1,1.2,2.1l0.7-2.3L326.2,443.3z M319.1,444.3c-0.9,0-1.8,0.4-2.7,1.2c-1.4,1.1-2.6,2.8-3.6,5c-1.1,2.2-1.6,4.2-1.6,6
		c0,0.9,0.2,1.6,0.7,2.2c0.5,0.5,1,0.8,1.6,0.8c1.5,0,3-1.1,4.7-3.2c2.3-2.9,3.4-5.8,3.4-8.8c0-1.1-0.2-2-0.7-2.5
		C320.4,444.6,319.8,444.3,319.1,444.3z"/>
	<path class="st1" d="M346.8,443.8l-3.5,11.9c-0.5,1.8-0.8,2.9-0.8,3.4c0,0.2,0,0.4,0.1,0.5c0.1,0.1,0.2,0.2,0.4,0.2
		c0.2,0,0.5-0.1,0.8-0.3c0.3-0.2,1-1,2.1-2.5l0.6,0.5c-1.1,1.7-2.1,2.9-3.2,3.7c-0.7,0.5-1.4,0.8-2.1,0.8c-0.5,0-0.9-0.1-1.2-0.4
		c-0.3-0.3-0.4-0.7-0.4-1.1c0-0.5,0.1-1.1,0.3-1.8c0.2-1,0.8-3.1,1.8-6.4c-2.3,3.7-4.2,6.3-5.7,7.7c-1.5,1.4-2.9,2.1-4.3,2.1
		c-0.6,0-1.1-0.2-1.6-0.6c-0.4-0.4-0.6-1-0.6-1.6c0-1,0.3-2.5,0.9-4.6l1.7-6.2c0.4-1.5,0.6-2.4,0.6-2.8c0-0.2-0.1-0.3-0.2-0.4
		s-0.2-0.2-0.4-0.2c-0.3,0-0.6,0.1-0.8,0.3s-0.9,0.9-1.9,2.2l-0.6-0.4c1-1.5,2.1-2.7,3.2-3.4c0.9-0.6,1.6-0.9,2.4-0.9
		c0.5,0,0.9,0.2,1.2,0.5c0.3,0.3,0.5,0.7,0.5,1.2c0,0.7-0.3,2-0.8,3.9l-1.9,6.5c-0.5,1.8-0.8,2.9-0.8,3.3c0,0.3,0.1,0.5,0.3,0.6
		c0.2,0.2,0.4,0.2,0.7,0.2c0.4,0,1-0.2,1.7-0.7c0.7-0.4,1.7-1.4,2.8-2.9c1.2-1.5,2.2-2.9,2.9-4.3c0.8-1.3,1.6-3.4,2.5-6.3l0.4-1.5
		H346.8z"/>
	<path class="st1" d="M358.6,438.3l-1.6,5.4h3.1l-0.3,1.3h-3.1l-3.4,11.8c-0.4,1.3-0.6,2.1-0.6,2.5c0,0.2,0.1,0.4,0.2,0.5
		c0.1,0.1,0.2,0.2,0.4,0.2c0.3,0,0.8-0.2,1.3-0.7c0.3-0.3,1-1.1,2.1-2.5l0.7,0.5c-1.2,1.8-2.4,3.1-3.5,3.8c-0.7,0.5-1.5,0.8-2.3,0.8
		c-0.6,0-1.1-0.2-1.4-0.6c-0.4-0.4-0.6-0.8-0.6-1.4c0-0.7,0.2-1.8,0.6-3.3l3.3-11.6h-3l0.2-0.8c1.5-0.4,2.7-1,3.7-1.8
		c1-0.8,2.1-2.2,3.3-4.1H358.6z"/>
	<path class="st1" d="M364.3,453.9c-0.1,0.7-0.1,1.2-0.1,1.7c0,1.2,0.4,2.2,1.3,3s1.9,1.3,3.1,1.3c1,0,1.9-0.2,2.8-0.6
		c0.9-0.4,2.2-1.3,4-2.6l0.4,0.6c-3.2,3.1-6.2,4.7-9,4.7c-1.9,0-3.4-0.6-4.4-1.8c-1-1.2-1.5-2.6-1.5-4.1c0-2,0.6-4,1.8-6.1
		c1.2-2.1,2.8-3.7,4.6-4.9c1.9-1.2,3.8-1.7,5.7-1.7c1.4,0,2.5,0.3,3.1,0.9c0.7,0.6,1,1.3,1,2c0,1.1-0.4,2.2-1.3,3.2
		c-1.2,1.3-2.9,2.4-5.1,3.2C369.1,453.1,367,453.6,364.3,453.9z M364.4,452.9c2-0.2,3.6-0.6,4.8-1.2c1.6-0.7,2.9-1.6,3.7-2.6
		c0.8-1,1.2-2,1.2-2.9c0-0.6-0.2-1-0.5-1.4c-0.4-0.3-0.9-0.5-1.5-0.5c-1.4,0-2.8,0.7-4.3,2.2C366.2,447.9,365.1,450,364.4,452.9z
		 M376.5,433.3l-5.9,6.9h-0.7l2.1-6.9H376.5z"/>
	<polygon class="st0" points="195.6,33.4 189.6,154.4 239.6,155.4 234.6,34.4 	"/>
	<path class="st0" d="M373.6,152.9c-0.2-0.1-0.2-0.2-0.3-0.2"/>
	<path class="st0" d="M373,200.9c0.2-0.3,0.4-0.5,0.7-0.7"/>
	<g>
		<polygon class="st0" points="159.4,35.5 158.6,28.4 377.6,30.4 377.6,34.4 		"/>
	</g>
	<g>
		<polygon class="st0" points="155.8,156.5 155.1,149.4 269.6,152.4 269.6,156.4 		"/>
	</g>
	<g>
		<polygon class="st0" points="377.7,322.1 228.5,322.1 228.6,318.4 377.6,318.4 		"/>
	</g>
	<g>
		<polygon class="st0" points="49.5,322.1 49.5,274.6 54.6,274.4 54.6,318.4 188.6,318.4 188.7,322.1 		"/>
	</g>
	<g>
		<rect x="373.6" y="31.4" class="st0" width="4" height="290"/>
	</g>
	<g>
		<path class="st0" d="M214.6,148.9c-58.1,0-105,49.5-105,100.4s46.9,81.1,105,81.1s105-30.2,105-81.1S272.8,148.9,214.6,148.9z
			 M214.6,315.8c-45.1,0-79.8-33.8-79.8-73.3s34.6-91.1,79.8-91.1s79.8,51.5,79.8,91.1S259.8,315.8,214.6,315.8z"/>
	</g>
</g>
</svg>
